<?xml version="1.0" encoding="utf-8"?>
<!-- Generator: Adobe Illustrator 24.1.3, SVG Export Plug-In . SVG Version: 6.00 Build 0)  -->
<svg version="1.1" id="Layer_1" xmlns="http://www.w3.org/2000/svg" xmlns:xlink="http://www.w3.org/1999/xlink" x="0px" y="0px"
	 viewBox="0 0 14 16" style="enable-background:new 0 0 14 16;" xml:space="preserve">
<style type="text/css">
	.st0{fill:#1E3050;}
</style>
<path class="st0" d="M0,4c0-0.6,0.4-1,1-1h12c0.6,0,1,0.4,1,1s-0.4,1-1,1H1C0.4,5,0,4.6,0,4z M0,9c0-0.6,0.4-1,1-1h12
	c0.6,0,1,0.4,1,1s-0.4,1-1,1H1C0.4,10,0,9.6,0,9z M14,14c0,0.6-0.4,1-1,1H1c-0.6,0-1-0.4-1-1s0.4-1,1-1h12C13.6,13,14,13.4,14,14z"
	/>
</svg>
