<?xml version="1.0" encoding="utf-8"?>
<!-- Generator: Adobe Illustrator 24.1.3, SVG Export Plug-In . SVG Version: 6.00 Build 0)  -->
<svg version="1.1" id="Layer_1" xmlns="http://www.w3.org/2000/svg" xmlns:xlink="http://www.w3.org/1999/xlink" x="0px" y="0px"
	 viewBox="0 0 18 16" style="enable-background:new 0 0 18 16;" xml:space="preserve">
<style type="text/css">
	.st0{fill:#1E3050;}
</style>
<path class="st0" d="M17,6h-2.7l-2.9-5.6c-0.2-0.4-0.6-0.5-1-0.3c-0.4,0.2-0.5,0.6-0.3,1L12.6,6H5.4l2.5-4.9c0.2-0.4,0-0.8-0.3-1
	c-0.4-0.2-0.8,0-1,0.3L3.7,6H1C0.5,6,0,6.5,0,7s0.5,1,1,1l1.6,6.5c0.2,0.9,1,1.5,1.9,1.5h8.9c0.9,0,1.7-0.6,1.9-1.5L17,8
	c0.5,0,1-0.5,1-1S17.5,6,17,6z M6.1,12.7c0,0.3-0.4,0.6-0.7,0.6c-0.3,0-0.7-0.3-0.7-0.6V9.3c0-0.3,0.4-0.6,0.7-0.6
	c0.3,0,0.7,0.3,0.7,0.6V12.7z M9.7,12.7c0,0.3-0.4,0.6-0.7,0.6c-0.3,0-0.7-0.3-0.7-0.6V9.3C8.3,9,8.7,8.7,9,8.7
	c0.3,0,0.7,0.3,0.7,0.6V12.7z M13.3,12.7c0,0.3-0.4,0.6-0.7,0.6c-0.3,0-0.7-0.3-0.7-0.6V9.3c0-0.3,0.4-0.6,0.7-0.6
	c0.3,0,0.7,0.3,0.7,0.6V12.7z"/>
</svg>
